<svg xmlns="http://www.w3.org/2000/svg" viewBox="0 0 32 32" fill="none">
  <defs>
    <!-- Золотой блеск для канта -->
    <linearGradient id="rim_grad" x1="0" y1="0" x2="32" y2="32" gradientUnits="userSpaceOnUse">
      <stop offset="0" stop-color="#FFD700"/>
      <stop offset="0.5" stop-color="#B8860B"/>
      <stop offset="1" stop-color="#8B6508"/>
    </linearGradient>
    
    <!-- Золотой блеск для лица монеты -->
    <linearGradient id="face_grad" x1="32" y1="32" x2="0" y2="0" gradientUnits="userSpaceOnUse">
      <stop offset="0" stop-color="#F0B429"/>
      <stop offset="1" stop-color="#D49A17"/>
    </linearGradient>

    <!-- Тень внутри монеты для глубины -->
    <filter id="depth" x="-10%" y="-10%" width="120%" height="120%">
      <feInnerShadow stdDeviation="1.5" />
    </filter>
  </defs>

  <!-- Внешний приподнятый кант монеты -->
  <circle cx="16" cy="16" r="15.5" fill="url(#rim_grad)" />
  
  <!-- Теневой переход между кантом и лицом -->
  <circle cx="16" cy="16" r="13.5" fill="#8B6508" opacity="0.4" />

  <!-- Лицо монеты (утоплено внутрь) -->
  <circle cx="16" cy="16" r="12" fill="url(#face_grad)" />

  <!-- Одно белое сердце в центре (чистый вектор, уменьшенная версия) -->
  <path d="M16 19.8S12.3 18 12.3 15C12.3 13.35 13.4 12.35 14.5 12.35C15.4 12.35 16 13.1 16 14.25C16 13.1 16.6 12.35 17.5 12.35C18.6 12.35 19.7 13.35 19.7 15C19.7 18 16 19.8 16 19.8Z" fill="white" />
  
  <!-- Финальный блик сверху для металлического эффекта -->
  <path d="M5 10C8 5 20 4 27 12" stroke="white" stroke-width="1" stroke-linecap="round" opacity="0.3" />
</svg>
